<?xml version="1.0" standalone="no"?>
<!DOCTYPE svg PUBLIC "-//W3C//DTD SVG 20010904//EN"
 "http://www.w3.org/TR/2001/REC-SVG-20010904/DTD/svg10.dtd">
<svg version="1.0" xmlns="http://www.w3.org/2000/svg"
 width="92.000000pt" height="92.000000pt" viewBox="0 0 92.000000 92.000000"
 preserveAspectRatio="xMidYMid meet">
<metadata>
Created by potrace 1.14, written by Peter Selinger 2001-2017
</metadata>
<g transform="translate(0.000000,92.000000) scale(0.100000,-0.100000)"
fill="#000000" stroke="none">
<path d="M460 910 c0 -5 -9 -10 -20 -10 -19 0 -20 -7 -20 -130 0 -123 -1 -130
-20 -130 -13 0 -20 -7 -20 -20 0 -16 -7 -20 -30 -20 -23 0 -30 -4 -30 -20 0
-16 -7 -20 -30 -20 -23 0 -30 -4 -30 -20 0 -18 -7 -20 -60 -20 l-60 0 0 60 0
60 -40 0 c-33 0 -40 -3 -40 -20 0 -13 -7 -20 -20 -20 -19 0 -20 -7 -20 -120 0
-113 1 -120 20 -120 13 0 20 -7 20 -20 0 -13 7 -20 20 -20 13 0 20 -7 20 -20
0 -13 7 -20 20 -20 13 0 20 -7 20 -20 0 -13 7 -20 20 -20 16 0 20 -7 20 -30
l0 -30 -80 0 c-47 0 -80 -4 -80 -10 0 -6 40 -10 100 -10 l100 0 0 -30 c0 -28
-2 -30 -40 -30 -22 0 -40 -4 -40 -10 0 -5 18 -10 40 -10 38 0 40 -2 40 -30 l0
-30 80 0 80 0 0 30 c0 23 -4 30 -20 30 -13 0 -20 7 -20 20 0 13 7 20 20 20 13
0 20 7 20 20 0 13 7 20 20 20 18 0 20 -7 20 -70 l0 -70 80 0 80 0 0 30 c0 23
-4 30 -20 30 -17 0 -20 7 -20 40 l0 40 180 0 c113 0 180 4 180 10 0 6 -60 10
-160 10 l-160 0 0 30 c0 23 4 30 20 30 17 0 20 7 20 50 0 43 3 50 20 50 16 0
20 7 20 30 0 28 2 30 40 30 l40 0 0 80 0 80 40 0 40 0 0 40 0 40 40 0 40 0 0
110 c0 103 -1 110 -20 110 -16 0 -20 7 -20 30 l0 30 -200 0 c-127 0 -200 -4
-200 -10z m120 -90 c0 -13 -7 -20 -20 -20 -13 0 -20 7 -20 20 0 13 7 20 20 20
13 0 20 -7 20 -20z"/>
<path d="M840 50 c0 -5 5 -10 10 -10 6 0 10 5 10 10 0 6 -4 10 -10 10 -5 0
-10 -4 -10 -10z"/>
<path d="M20 30 c0 -5 18 -10 40 -10 22 0 40 5 40 10 0 6 -18 10 -40 10 -22 0
-40 -4 -40 -10z"/>
</g>
</svg>
